<svg width="343" height="104" viewBox="0 0 343 104" fill="none" xmlns="http://www.w3.org/2000/svg">
<rect x="0.25" y="0.25" width="342.5" height="43.5" rx="11.75" stroke="#161616" stroke-width="0.5"/>
<path d="M145.364 28.112C144.617 28.112 143.945 27.984 143.348 27.728C142.751 27.4613 142.281 27.088 141.94 26.608C141.599 26.128 141.428 25.568 141.428 24.928H143.38C143.423 25.408 143.609 25.8027 143.94 26.112C144.281 26.4213 144.756 26.576 145.364 26.576C145.993 26.576 146.484 26.4267 146.836 26.128C147.188 25.8187 147.364 25.424 147.364 24.944C147.364 24.5707 147.252 24.2667 147.028 24.032C146.815 23.7973 146.543 23.616 146.212 23.488C145.892 23.36 145.444 23.2213 144.868 23.072C144.143 22.88 143.551 22.688 143.092 22.496C142.644 22.2933 142.26 21.984 141.94 21.568C141.62 21.152 141.46 20.5973 141.46 19.904C141.46 19.264 141.62 18.704 141.94 18.224C142.26 17.744 142.708 17.376 143.284 17.12C143.86 16.864 144.527 16.736 145.284 16.736C146.361 16.736 147.241 17.008 147.924 17.552C148.617 18.0853 149.001 18.8213 149.076 19.76H147.06C147.028 19.3547 146.836 19.008 146.484 18.72C146.132 18.432 145.668 18.288 145.092 18.288C144.569 18.288 144.143 18.4213 143.812 18.688C143.481 18.9547 143.316 19.3387 143.316 19.84C143.316 20.1813 143.417 20.464 143.62 20.688C143.833 20.9013 144.1 21.072 144.42 21.2C144.74 21.328 145.177 21.4667 145.732 21.616C146.468 21.8187 147.065 22.0213 147.524 22.224C147.993 22.4267 148.388 22.7413 148.708 23.168C149.039 23.584 149.204 24.144 149.204 24.848C149.204 25.4133 149.049 25.9467 148.74 26.448C148.441 26.9493 147.999 27.3547 147.412 27.664C146.836 27.9627 146.153 28.112 145.364 28.112ZM152.284 18.016C151.954 18.016 151.676 17.904 151.452 17.68C151.228 17.456 151.116 17.1787 151.116 16.848C151.116 16.5173 151.228 16.24 151.452 16.016C151.676 15.792 151.954 15.68 152.284 15.68C152.604 15.68 152.876 15.792 153.1 16.016C153.324 16.24 153.436 16.5173 153.436 16.848C153.436 17.1787 153.324 17.456 153.1 17.68C152.876 17.904 152.604 18.016 152.284 18.016ZM153.18 19.184V28H151.356V19.184H153.18ZM159.127 19.04C159.81 19.04 160.412 19.1787 160.935 19.456C161.468 19.7227 161.884 20.0587 162.183 20.464V19.184H164.023V28.144C164.023 28.9547 163.852 29.6747 163.511 30.304C163.17 30.944 162.674 31.4453 162.023 31.808C161.383 32.1707 160.615 32.352 159.719 32.352C158.524 32.352 157.532 32.0693 156.743 31.504C155.954 30.9493 155.506 30.192 155.399 29.232H157.207C157.346 29.6907 157.639 30.0587 158.087 30.336C158.546 30.624 159.09 30.768 159.719 30.768C160.455 30.768 161.047 30.544 161.495 30.096C161.954 29.648 162.183 28.9973 162.183 28.144V26.672C161.874 27.088 161.452 27.44 160.919 27.728C160.396 28.0053 159.799 28.144 159.127 28.144C158.359 28.144 157.655 27.952 157.015 27.568C156.386 27.1733 155.884 26.6293 155.511 25.936C155.148 25.232 154.967 24.4373 154.967 23.552C154.967 22.6667 155.148 21.8827 155.511 21.2C155.884 20.5173 156.386 19.9893 157.015 19.616C157.655 19.232 158.359 19.04 159.127 19.04ZM162.183 23.584C162.183 22.976 162.055 22.448 161.799 22C161.554 21.552 161.228 21.2107 160.823 20.976C160.418 20.7413 159.98 20.624 159.511 20.624C159.042 20.624 158.604 20.7413 158.199 20.976C157.794 21.2 157.463 21.536 157.207 21.984C156.962 22.4213 156.839 22.944 156.839 23.552C156.839 24.16 156.962 24.6933 157.207 25.152C157.463 25.6107 157.794 25.9627 158.199 26.208C158.615 26.4427 159.052 26.56 159.511 26.56C159.98 26.56 160.418 26.4427 160.823 26.208C161.228 25.9733 161.554 25.632 161.799 25.184C162.055 24.7253 162.183 24.192 162.183 23.584ZM170.867 19.04C171.56 19.04 172.179 19.184 172.723 19.472C173.277 19.76 173.709 20.1867 174.019 20.752C174.328 21.3173 174.483 22 174.483 22.8V28H172.675V23.072C172.675 22.2827 172.477 21.68 172.083 21.264C171.688 20.8373 171.149 20.624 170.467 20.624C169.784 20.624 169.24 20.8373 168.835 21.264C168.44 21.68 168.243 22.2827 168.243 23.072V28H166.419V19.184H168.243V20.192C168.541 19.8293 168.92 19.5467 169.379 19.344C169.848 19.1413 170.344 19.04 170.867 19.04ZM182.774 16.88V23.968C182.774 24.8107 182.992 25.4453 183.43 25.872C183.878 26.2987 184.496 26.512 185.286 26.512C186.086 26.512 186.704 26.2987 187.142 25.872C187.59 25.4453 187.814 24.8107 187.814 23.968V16.88H189.638V23.936C189.638 24.8427 189.44 25.6107 189.046 26.24C188.651 26.8693 188.123 27.3387 187.462 27.648C186.8 27.9573 186.07 28.112 185.27 28.112C184.47 28.112 183.739 27.9573 183.078 27.648C182.427 27.3387 181.91 26.8693 181.526 26.24C181.142 25.6107 180.95 24.8427 180.95 23.936V16.88H182.774ZM193.837 20.48C194.146 20.0747 194.567 19.7333 195.101 19.456C195.634 19.1787 196.237 19.04 196.909 19.04C197.677 19.04 198.375 19.232 199.005 19.616C199.645 19.9893 200.146 20.5173 200.509 21.2C200.871 21.8827 201.053 22.6667 201.053 23.552C201.053 24.4373 200.871 25.232 200.509 25.936C200.146 26.6293 199.645 27.1733 199.005 27.568C198.375 27.952 197.677 28.144 196.909 28.144C196.237 28.144 195.639 28.0107 195.117 27.744C194.594 27.4667 194.167 27.1253 193.837 26.72V32.192H192.013V19.184H193.837V20.48ZM199.197 23.552C199.197 22.944 199.069 22.4213 198.812 21.984C198.567 21.536 198.237 21.2 197.821 20.976C197.415 20.7413 196.978 20.624 196.509 20.624C196.05 20.624 195.613 20.7413 195.197 20.976C194.791 21.2107 194.461 21.552 194.205 22C193.959 22.448 193.837 22.976 193.837 23.584C193.837 24.192 193.959 24.7253 194.205 25.184C194.461 25.632 194.791 25.9733 195.197 26.208C195.613 26.4427 196.05 26.56 196.509 26.56C196.978 26.56 197.415 26.4427 197.821 26.208C198.237 25.9627 198.567 25.6107 198.812 25.152C199.069 24.6933 199.197 24.16 199.197 23.552Z" fill="#161616"/>
<rect x="0.25" y="60.25" width="342.5" height="43.5" rx="11.75" stroke="#161616" stroke-width="0.5"/>
<path d="M151.024 86.528H154.784V88H149.2V76.88H151.024V86.528ZM160.133 88.144C159.301 88.144 158.549 87.9573 157.877 87.584C157.205 87.2 156.677 86.6667 156.293 85.984C155.909 85.2907 155.717 84.4907 155.717 83.584C155.717 82.688 155.915 81.8933 156.309 81.2C156.704 80.5067 157.243 79.9733 157.925 79.6C158.608 79.2267 159.371 79.04 160.213 79.04C161.056 79.04 161.819 79.2267 162.501 79.6C163.184 79.9733 163.723 80.5067 164.117 81.2C164.512 81.8933 164.709 82.688 164.709 83.584C164.709 84.48 164.507 85.2747 164.101 85.968C163.696 86.6613 163.141 87.2 162.437 87.584C161.744 87.9573 160.976 88.144 160.133 88.144ZM160.133 86.56C160.603 86.56 161.04 86.448 161.445 86.224C161.861 86 162.197 85.664 162.453 85.216C162.709 84.768 162.837 84.224 162.837 83.584C162.837 82.944 162.715 82.4053 162.469 81.968C162.224 81.52 161.899 81.184 161.493 80.96C161.088 80.736 160.651 80.624 160.181 80.624C159.712 80.624 159.275 80.736 158.869 80.96C158.475 81.184 158.16 81.52 157.925 81.968C157.691 82.4053 157.573 82.944 157.573 83.584C157.573 84.5333 157.813 85.2693 158.293 85.792C158.784 86.304 159.397 86.56 160.133 86.56ZM170.065 79.04C170.747 79.04 171.35 79.1787 171.873 79.456C172.406 79.7227 172.822 80.0587 173.121 80.464V79.184H174.961V88.144C174.961 88.9547 174.79 89.6747 174.449 90.304C174.107 90.944 173.611 91.4453 172.961 91.808C172.321 92.1707 171.553 92.352 170.657 92.352C169.462 92.352 168.47 92.0693 167.681 91.504C166.891 90.9493 166.443 90.192 166.337 89.232H168.145C168.283 89.6907 168.577 90.0587 169.025 90.336C169.483 90.624 170.027 90.768 170.657 90.768C171.393 90.768 171.985 90.544 172.433 90.096C172.891 89.648 173.121 88.9973 173.121 88.144V86.672C172.811 87.088 172.39 87.44 171.857 87.728C171.334 88.0053 170.737 88.144 170.065 88.144C169.297 88.144 168.593 87.952 167.953 87.568C167.323 87.1733 166.822 86.6293 166.449 85.936C166.086 85.232 165.905 84.4373 165.905 83.552C165.905 82.6667 166.086 81.8827 166.449 81.2C166.822 80.5173 167.323 79.9893 167.953 79.616C168.593 79.232 169.297 79.04 170.065 79.04ZM173.121 83.584C173.121 82.976 172.993 82.448 172.737 82C172.491 81.552 172.166 81.2107 171.761 80.976C171.355 80.7413 170.918 80.624 170.449 80.624C169.979 80.624 169.542 80.7413 169.137 80.976C168.731 81.2 168.401 81.536 168.145 81.984C167.899 82.4213 167.777 82.944 167.777 83.552C167.777 84.16 167.899 84.6933 168.145 85.152C168.401 85.6107 168.731 85.9627 169.137 86.208C169.553 86.4427 169.99 86.56 170.449 86.56C170.918 86.56 171.355 86.4427 171.761 86.208C172.166 85.9733 172.491 85.632 172.737 85.184C172.993 84.7253 173.121 84.192 173.121 83.584ZM182.441 78.016C182.11 78.016 181.833 77.904 181.609 77.68C181.385 77.456 181.273 77.1787 181.273 76.848C181.273 76.5173 181.385 76.24 181.609 76.016C181.833 75.792 182.11 75.68 182.441 75.68C182.761 75.68 183.033 75.792 183.257 76.016C183.481 76.24 183.593 76.5173 183.593 76.848C183.593 77.1787 183.481 77.456 183.257 77.68C183.033 77.904 182.761 78.016 182.441 78.016ZM183.337 79.184V88H181.513V79.184H183.337ZM190.179 79.04C190.873 79.04 191.491 79.184 192.035 79.472C192.59 79.76 193.022 80.1867 193.331 80.752C193.641 81.3173 193.795 82 193.795 82.8V88H191.987V83.072C191.987 82.2827 191.79 81.68 191.395 81.264C191.001 80.8373 190.462 80.624 189.779 80.624C189.097 80.624 188.553 80.8373 188.147 81.264C187.753 81.68 187.555 82.2827 187.555 83.072V88H185.731V79.184H187.555V80.192C187.854 79.8293 188.233 79.5467 188.691 79.344C189.161 79.1413 189.657 79.04 190.179 79.04Z" fill="#161616"/>
</svg>
