<svg width="316" height="44" viewBox="0 0 316 44" fill="none" xmlns="http://www.w3.org/2000/svg">
<rect width="154" height="44" rx="12" fill="#FCF9F9"/>
<rect x="0.25" y="0.25" width="153.5" height="43.5" rx="11.75" stroke="black" stroke-opacity="0.42" stroke-width="0.5"/>
<path d="M65.758 21.502C66.2807 21.5953 66.724 21.8707 67.088 22.328C67.452 22.7853 67.634 23.3033 67.634 23.882C67.634 24.3767 67.5033 24.8247 67.242 25.226C66.99 25.618 66.6213 25.9307 66.136 26.164C65.6507 26.388 65.086 26.5 64.442 26.5H60.55V16.77H64.26C64.9227 16.77 65.492 16.882 65.968 17.106C66.444 17.33 66.8033 17.6333 67.046 18.016C67.2887 18.3893 67.41 18.8093 67.41 19.276C67.41 19.836 67.2607 20.3027 66.962 20.676C66.6633 21.0493 66.262 21.3247 65.758 21.502ZM62.146 20.858H64.12C64.6427 20.858 65.0487 20.7413 65.338 20.508C65.6367 20.2653 65.786 19.92 65.786 19.472C65.786 19.0333 65.6367 18.6927 65.338 18.45C65.0487 18.198 64.6427 18.072 64.12 18.072H62.146V20.858ZM64.302 25.198C64.8433 25.198 65.268 25.0673 65.576 24.806C65.884 24.5447 66.038 24.1807 66.038 23.714C66.038 23.238 65.8747 22.86 65.548 22.58C65.2213 22.3 64.7873 22.16 64.246 22.16H62.146V25.198H64.302ZM68.8364 22.608C68.8364 21.8333 68.995 21.1473 69.3124 20.55C69.639 19.9527 70.0777 19.4907 70.6284 19.164C71.1884 18.828 71.8044 18.66 72.4764 18.66C73.083 18.66 73.6104 18.7813 74.0584 19.024C74.5157 19.2573 74.8797 19.5513 75.1504 19.906V18.786H76.7604V26.5H75.1504V25.352C74.8797 25.716 74.511 26.0193 74.0444 26.262C73.5777 26.5047 73.0457 26.626 72.4484 26.626C71.7857 26.626 71.179 26.458 70.6284 26.122C70.0777 25.7767 69.639 25.3007 69.3124 24.694C68.995 24.078 68.8364 23.3827 68.8364 22.608ZM75.1504 22.636C75.1504 22.104 75.0384 21.642 74.8144 21.25C74.5997 20.858 74.315 20.5593 73.9604 20.354C73.6057 20.1487 73.223 20.046 72.8124 20.046C72.4017 20.046 72.019 20.1487 71.6644 20.354C71.3097 20.55 71.0204 20.844 70.7964 21.236C70.5817 21.6187 70.4744 22.076 70.4744 22.608C70.4744 23.14 70.5817 23.6067 70.7964 24.008C71.0204 24.4093 71.3097 24.7173 71.6644 24.932C72.0284 25.1373 72.411 25.24 72.8124 25.24C73.223 25.24 73.6057 25.1373 73.9604 24.932C74.315 24.7267 74.5997 24.428 74.8144 24.036C75.0384 23.6347 75.1504 23.168 75.1504 22.636ZM78.3246 22.636C78.3246 21.8427 78.4833 21.1473 78.8006 20.55C79.1273 19.9433 79.5753 19.4767 80.1446 19.15C80.714 18.8233 81.3673 18.66 82.1046 18.66C83.038 18.66 83.808 18.884 84.4146 19.332C85.0306 19.7707 85.446 20.4007 85.6606 21.222H83.9386C83.7986 20.8393 83.5746 20.5407 83.2666 20.326C82.9586 20.1113 82.5713 20.004 82.1046 20.004C81.4513 20.004 80.9286 20.2373 80.5366 20.704C80.154 21.1613 79.9626 21.8053 79.9626 22.636C79.9626 23.4667 80.154 24.1153 80.5366 24.582C80.9286 25.0487 81.4513 25.282 82.1046 25.282C83.0286 25.282 83.64 24.876 83.9386 24.064H85.6606C85.4366 24.848 85.0166 25.4733 84.4006 25.94C83.7846 26.3973 83.0193 26.626 82.1046 26.626C81.3673 26.626 80.714 26.4627 80.1446 26.136C79.5753 25.8 79.1273 25.3333 78.8006 24.736C78.4833 24.1293 78.3246 23.4293 78.3246 22.636ZM90.3032 22.65L93.8592 26.5H91.7032L88.8472 23.182V26.5H87.2512V16.14H88.8472V22.16L91.6472 18.786H93.8592L90.3032 22.65Z" fill="black"/>
<rect x="162" width="154" height="44" rx="12" fill="#1D52B9"/>
<path d="M232.544 26.5H230.948L226.146 19.234V26.5H224.55V16.756H226.146L230.948 24.008V16.756H232.544V26.5ZM241.71 22.454C241.71 22.7433 241.691 23.0047 241.654 23.238H235.76C235.807 23.854 236.035 24.3487 236.446 24.722C236.857 25.0953 237.361 25.282 237.958 25.282C238.817 25.282 239.423 24.9227 239.778 24.204H241.5C241.267 24.9133 240.842 25.4967 240.226 25.954C239.619 26.402 238.863 26.626 237.958 26.626C237.221 26.626 236.558 26.4627 235.97 26.136C235.391 25.8 234.934 25.3333 234.598 24.736C234.271 24.1293 234.108 23.4293 234.108 22.636C234.108 21.8427 234.267 21.1473 234.584 20.55C234.911 19.9433 235.363 19.4767 235.942 19.15C236.53 18.8233 237.202 18.66 237.958 18.66C238.686 18.66 239.335 18.8187 239.904 19.136C240.473 19.4533 240.917 19.9013 241.234 20.48C241.551 21.0493 241.71 21.7073 241.71 22.454ZM240.044 21.95C240.035 21.362 239.825 20.8907 239.414 20.536C239.003 20.1813 238.495 20.004 237.888 20.004C237.337 20.004 236.866 20.1813 236.474 20.536C236.082 20.8813 235.849 21.3527 235.774 21.95H240.044ZM246.584 22.594L249.076 26.5H247.27L245.604 23.882L244.036 26.5H242.37L244.862 22.706L242.37 18.786H244.176L245.842 21.404L247.41 18.786H249.076L246.584 22.594ZM252.129 20.088V24.358C252.129 24.6473 252.194 24.8573 252.325 24.988C252.465 25.1093 252.698 25.17 253.025 25.17H254.005V26.5H252.745C252.026 26.5 251.475 26.332 251.093 25.996C250.71 25.66 250.519 25.114 250.519 24.358V20.088H249.609V18.786H250.519V16.868H252.129V18.786H254.005V20.088H252.129Z" fill="white"/>
</svg>
