<svg width="340" height="24" viewBox="0 0 340 24" fill="none" xmlns="http://www.w3.org/2000/svg">
<path d="M19 12H5" stroke="#161616" stroke-width="1.5" stroke-linecap="round" stroke-linejoin="round"/>
<path d="M12 5L5 12L12 19" stroke="#161616" stroke-width="1.5" stroke-linecap="round" stroke-linejoin="round"/>
<path d="M311.075 17.612C310.328 17.612 309.656 17.484 309.059 17.228C308.462 16.9613 307.992 16.588 307.651 16.108C307.31 15.628 307.139 15.068 307.139 14.428H309.091C309.134 14.908 309.32 15.3027 309.651 15.612C309.992 15.9213 310.467 16.076 311.075 16.076C311.704 16.076 312.195 15.9267 312.547 15.628C312.899 15.3187 313.075 14.924 313.075 14.444C313.075 14.0707 312.963 13.7667 312.739 13.532C312.526 13.2973 312.254 13.116 311.923 12.988C311.603 12.86 311.155 12.7213 310.579 12.572C309.854 12.38 309.262 12.188 308.803 11.996C308.355 11.7933 307.971 11.484 307.651 11.068C307.331 10.652 307.171 10.0973 307.171 9.404C307.171 8.764 307.331 8.204 307.651 7.724C307.971 7.244 308.419 6.876 308.995 6.62C309.571 6.364 310.238 6.236 310.995 6.236C312.072 6.236 312.952 6.508 313.635 7.052C314.328 7.58533 314.712 8.32133 314.787 9.26H312.771C312.739 8.85467 312.547 8.508 312.195 8.22C311.843 7.932 311.379 7.788 310.803 7.788C310.28 7.788 309.854 7.92133 309.523 8.188C309.192 8.45467 309.027 8.83867 309.027 9.34C309.027 9.68133 309.128 9.964 309.331 10.188C309.544 10.4013 309.811 10.572 310.131 10.7C310.451 10.828 310.888 10.9667 311.443 11.116C312.179 11.3187 312.776 11.5213 313.235 11.724C313.704 11.9267 314.099 12.2413 314.419 12.668C314.75 13.084 314.915 13.644 314.915 14.348C314.915 14.9133 314.76 15.4467 314.451 15.948C314.152 16.4493 313.71 16.8547 313.123 17.164C312.547 17.4627 311.864 17.612 311.075 17.612ZM320.555 13.1L324.619 17.5H322.155L318.891 13.708V17.5H317.067V5.66H318.891V12.54L322.091 8.684H324.619L320.555 13.1ZM326.855 7.516C326.524 7.516 326.247 7.404 326.023 7.18C325.799 6.956 325.687 6.67867 325.687 6.348C325.687 6.01733 325.799 5.74 326.023 5.516C326.247 5.292 326.524 5.18 326.855 5.18C327.175 5.18 327.447 5.292 327.671 5.516C327.895 5.74 328.007 6.01733 328.007 6.348C328.007 6.67867 327.895 6.956 327.671 7.18C327.447 7.404 327.175 7.516 326.855 7.516ZM327.751 8.684V17.5H325.927V8.684H327.751ZM331.969 9.98C332.279 9.57467 332.7 9.23333 333.233 8.956C333.767 8.67867 334.369 8.54 335.041 8.54C335.809 8.54 336.508 8.732 337.137 9.116C337.777 9.48933 338.279 10.0173 338.641 10.7C339.004 11.3827 339.185 12.1667 339.185 13.052C339.185 13.9373 339.004 14.732 338.641 15.436C338.279 16.1293 337.777 16.6733 337.137 17.068C336.508 17.452 335.809 17.644 335.041 17.644C334.369 17.644 333.772 17.5107 333.249 17.244C332.727 16.9667 332.3 16.6253 331.969 16.22V21.692H330.145V8.684H331.969V9.98ZM337.329 13.052C337.329 12.444 337.201 11.9213 336.945 11.484C336.7 11.036 336.369 10.7 335.953 10.476C335.548 10.2413 335.111 10.124 334.641 10.124C334.183 10.124 333.745 10.2413 333.329 10.476C332.924 10.7107 332.593 11.052 332.337 11.5C332.092 11.948 331.969 12.476 331.969 13.084C331.969 13.692 332.092 14.2253 332.337 14.684C332.593 15.132 332.924 15.4733 333.329 15.708C333.745 15.9427 334.183 16.06 334.641 16.06C335.111 16.06 335.548 15.9427 335.953 15.708C336.369 15.4627 336.7 15.1107 336.945 14.652C337.201 14.1933 337.329 13.66 337.329 13.052Z" fill="#161616"/>
</svg>
