<svg width="390" height="50" viewBox="0 0 390 50" fill="none" xmlns="http://www.w3.org/2000/svg">
<rect x="302.334" y="26.3335" width="3" height="4" rx="1" fill="black"/>
<rect x="307" y="24.3335" width="3" height="6" rx="1" fill="black"/>
<rect x="311.668" y="21.6665" width="3" height="8.66667" rx="1" fill="#C1C1C5"/>
<rect x="316.334" y="19" width="3" height="11.3333" rx="1" fill="#C1C1C5"/>
<rect x="347.166" y="19.1665" width="21.6667" height="11" rx="2.83333" stroke="#919194"/>
<rect x="348.666" y="20.6665" width="11.3333" height="8" rx="1.66667" fill="black"/>
<path d="M370.333 26.6665C370.508 26.6665 370.682 26.6148 370.844 26.5143C371.005 26.4138 371.152 26.2664 371.276 26.0807C371.4 25.895 371.498 25.6745 371.565 25.4319C371.632 25.1892 371.667 24.9291 371.667 24.6665C371.667 24.4039 371.632 24.1438 371.565 23.9011C371.498 23.6585 371.4 23.438 371.276 23.2523C371.152 23.0666 371.005 22.9193 370.844 22.8187C370.682 22.7182 370.508 22.6665 370.333 22.6665V24.6665V26.6665Z" fill="#79797B"/>
<path d="M35.9378 29.3335H37.8711V18.5204H35.9453L33.1203 20.5062V22.3271L35.8104 20.4237H35.9378V29.3335ZM44.7633 29.6033C47.3336 29.6033 48.8923 27.4227 48.8923 23.9307V23.9157C48.8923 20.4237 47.3336 18.2506 44.7633 18.2506C42.1931 18.2506 40.6494 20.4237 40.6494 23.9157V23.9307C40.6494 27.4227 42.1931 29.6033 44.7633 29.6033ZM44.7633 28.0371C43.3845 28.0371 42.5977 26.4935 42.5977 23.9307V23.9157C42.5977 21.3529 43.3845 19.8243 44.7633 19.8243C46.1421 19.8243 46.9439 21.3529 46.9439 23.9157V23.9307C46.9439 26.4935 46.1421 28.0371 44.7633 28.0371ZM52.2475 22.3271C52.9369 22.3271 53.439 21.8025 53.439 21.1431C53.439 20.4762 52.9369 19.9591 52.2475 19.9591C51.5656 19.9591 51.0561 20.4762 51.0561 21.1431C51.0561 21.8025 51.5656 22.3271 52.2475 22.3271ZM52.2475 27.8873C52.9369 27.8873 53.439 27.3702 53.439 26.7033C53.439 26.0364 52.9369 25.5193 52.2475 25.5193C51.5656 25.5193 51.0561 26.0364 51.0561 26.7033C51.0561 27.3702 51.5656 27.8873 52.2475 27.8873ZM59.7167 29.6033C62.287 29.6033 63.8457 27.4227 63.8457 23.9307V23.9157C63.8457 20.4237 62.287 18.2506 59.7167 18.2506C57.1465 18.2506 55.6028 20.4237 55.6028 23.9157V23.9307C55.6028 27.4227 57.1465 29.6033 59.7167 29.6033ZM59.7167 28.0371C58.3379 28.0371 57.5511 26.4935 57.5511 23.9307V23.9157C57.5511 21.3529 58.3379 19.8243 59.7167 19.8243C61.0955 19.8243 61.8974 21.3529 61.8974 23.9157V23.9307C61.8974 26.4935 61.0955 28.0371 59.7167 28.0371ZM68.5273 29.3335H70.4606V18.5204H68.5348L65.7097 20.5062V22.3271L68.3999 20.4237H68.5273V29.3335Z" fill="black"/>
<path d="M324.775 22.2861C324.638 22.1603 324.628 21.9466 324.758 21.813C325.79 20.7496 327.019 19.8956 328.378 19.2994C329.841 18.658 331.421 18.329 333.017 18.3335C334.614 18.3381 336.192 18.676 337.65 19.3258C339.006 19.9297 340.23 20.7907 341.257 21.8599C341.386 21.9943 341.375 22.2079 341.236 22.3329L339.741 23.6857C339.603 23.8106 339.39 23.7995 339.26 23.6663C338.486 22.8742 337.569 22.2352 336.555 21.7837C335.439 21.2865 334.231 21.0278 333.009 21.0243C331.788 21.0209 330.578 21.2726 329.459 21.7635C328.444 22.2092 327.522 22.8431 326.744 23.6307C326.613 23.7631 326.4 23.7731 326.263 23.6473L324.775 22.2861Z" fill="black"/>
<path d="M327.871 25.4027C327.729 25.2813 327.713 25.0678 327.841 24.9325C328.461 24.2764 329.202 23.7443 330.024 23.3659C330.949 22.9405 331.954 22.7192 332.972 22.7173C333.989 22.7154 334.996 22.9328 335.922 23.3548C336.745 23.7301 337.488 24.2594 338.111 24.9131C338.24 25.0479 338.224 25.2615 338.083 25.3834L336.801 26.4941C336.66 26.616 336.448 26.5998 336.316 26.4681C335.918 26.0703 335.452 25.7463 334.938 25.5123C334.322 25.2316 333.653 25.087 332.976 25.0883C332.299 25.0896 331.631 25.2367 331.016 25.5197C330.503 25.7557 330.038 26.0814 329.642 26.4807C329.511 26.6129 329.298 26.63 329.157 26.5086L327.871 25.4027Z" fill="black"/>
<path d="M335.369 28.0885C335.5 27.9569 335.501 27.742 335.358 27.6228C335.071 27.384 334.75 27.1893 334.404 27.046C333.954 26.8596 333.471 26.7637 332.984 26.7637C332.497 26.7637 332.015 26.8596 331.565 27.046C331.219 27.1893 330.897 27.384 330.61 27.6228C330.467 27.742 330.468 27.9569 330.6 28.0885L332.746 30.2346C332.877 30.3663 333.091 30.3663 333.223 30.2346L335.369 28.0885Z" fill="black"/>
</svg>
